<svg id="blur" xmlns="http://www.w3.org/2000/svg" width="32.86" height="32.86" viewBox="0 0 32.86 32.86">
  <g id="Groupe_61" data-name="Groupe 61">
    <g id="Groupe_60" data-name="Groupe 60">
      <path id="Tracé_42" data-name="Tracé 42" d="M.865,234.667a.865.865,0,1,0,.865.865A.867.867,0,0,0,.865,234.667Z" transform="translate(0 -215.643)" fill="#707070"/>
      <path id="Tracé_43" data-name="Tracé 43" d="M.865,149.333a.865.865,0,1,0,.865.865A.867.867,0,0,0,.865,149.333Z" transform="translate(0 -137.227)" fill="#707070"/>
      <path id="Tracé_44" data-name="Tracé 44" d="M150.2,384a.865.865,0,1,0,.865.865A.867.867,0,0,0,150.2,384Z" transform="translate(-137.227 -352.869)" fill="#707070"/>
      <path id="Tracé_45" data-name="Tracé 45" d="M55.063,53.333a1.73,1.73,0,1,0,1.729,1.73A1.735,1.735,0,0,0,55.063,53.333Z" transform="translate(-49.01 -49.009)" fill="#707070"/>
      <path id="Tracé_46" data-name="Tracé 46" d="M55.063,138.667a1.729,1.729,0,1,0,1.729,1.729A1.735,1.735,0,0,0,55.063,138.667Z" transform="translate(-49.01 -127.425)" fill="#707070"/>
      <path id="Tracé_47" data-name="Tracé 47" d="M55.063,224a1.729,1.729,0,1,0,1.729,1.729A1.735,1.735,0,0,0,55.063,224Z" transform="translate(-49.01 -205.84)" fill="#707070"/>
      <path id="Tracé_48" data-name="Tracé 48" d="M384.865,151.063A.865.865,0,1,0,384,150.2.867.867,0,0,0,384.865,151.063Z" transform="translate(-352.869 -137.227)" fill="#707070"/>
      <path id="Tracé_49" data-name="Tracé 49" d="M235.531,1.729a.865.865,0,1,0-.865-.865A.867.867,0,0,0,235.531,1.729Z" transform="translate(-215.642 0)" fill="#707070"/>
      <path id="Tracé_50" data-name="Tracé 50" d="M140.4,56.793a1.729,1.729,0,1,0-1.729-1.729A1.735,1.735,0,0,0,140.4,56.793Z" transform="translate(-127.425 -49.01)" fill="#707070"/>
      <path id="Tracé_51" data-name="Tracé 51" d="M150.2,1.729a.865.865,0,1,0-.865-.865A.867.867,0,0,0,150.2,1.729Z" transform="translate(-137.227 0)" fill="#707070"/>
      <path id="Tracé_52" data-name="Tracé 52" d="M225.729,56.793A1.729,1.729,0,1,0,224,55.063,1.735,1.735,0,0,0,225.729,56.793Z" transform="translate(-205.84 -49.01)" fill="#707070"/>
      <path id="Tracé_53" data-name="Tracé 53" d="M55.063,309.333a1.729,1.729,0,1,0,1.729,1.73A1.735,1.735,0,0,0,55.063,309.333Z" transform="translate(-49.01 -284.255)" fill="#707070"/>
      <path id="Tracé_54" data-name="Tracé 54" d="M215.927,128a2.594,2.594,0,1,0,2.594,2.594A2.591,2.591,0,0,0,215.927,128Z" transform="translate(-196.038 -117.623)" fill="#707070"/>
      <path id="Tracé_55" data-name="Tracé 55" d="M311.063,224a1.729,1.729,0,1,0,1.729,1.729A1.735,1.735,0,0,0,311.063,224Z" transform="translate(-284.256 -205.84)" fill="#707070"/>
      <path id="Tracé_56" data-name="Tracé 56" d="M311.063,309.333a1.729,1.729,0,1,0,1.729,1.73A1.735,1.735,0,0,0,311.063,309.333Z" transform="translate(-284.256 -284.255)" fill="#707070"/>
      <path id="Tracé_57" data-name="Tracé 57" d="M311.063,138.667a1.729,1.729,0,1,0,1.729,1.729A1.735,1.735,0,0,0,311.063,138.667Z" transform="translate(-284.256 -127.425)" fill="#707070"/>
      <path id="Tracé_58" data-name="Tracé 58" d="M384.865,234.667a.865.865,0,1,0,.865.865A.867.867,0,0,0,384.865,234.667Z" transform="translate(-352.869 -215.643)" fill="#707070"/>
      <path id="Tracé_59" data-name="Tracé 59" d="M311.063,53.333a1.73,1.73,0,1,0,1.729,1.73A1.735,1.735,0,0,0,311.063,53.333Z" transform="translate(-284.256 -49.009)" fill="#707070"/>
      <path id="Tracé_60" data-name="Tracé 60" d="M130.594,213.333a2.594,2.594,0,1,0,2.594,2.594A2.591,2.591,0,0,0,130.594,213.333Z" transform="translate(-117.623 -196.038)" fill="#707070"/>
      <path id="Tracé_61" data-name="Tracé 61" d="M140.4,309.333a1.729,1.729,0,1,0,1.729,1.729A1.735,1.735,0,0,0,140.4,309.333Z" transform="translate(-127.425 -284.255)" fill="#707070"/>
      <path id="Tracé_62" data-name="Tracé 62" d="M130.594,128a2.594,2.594,0,1,0,2.594,2.594A2.591,2.591,0,0,0,130.594,128Z" transform="translate(-117.623 -117.623)" fill="#707070"/>
      <path id="Tracé_63" data-name="Tracé 63" d="M225.729,309.333a1.73,1.73,0,1,0,1.729,1.73A1.735,1.735,0,0,0,225.729,309.333Z" transform="translate(-205.84 -284.255)" fill="#707070"/>
      <path id="Tracé_64" data-name="Tracé 64" d="M235.531,384a.865.865,0,1,0,.865.865A.867.867,0,0,0,235.531,384Z" transform="translate(-215.642 -352.869)" fill="#707070"/>
      <path id="Tracé_65" data-name="Tracé 65" d="M215.927,213.333a2.594,2.594,0,1,0,2.594,2.594A2.591,2.591,0,0,0,215.927,213.333Z" transform="translate(-196.038 -196.038)" fill="#707070"/>
    </g>
  </g>
</svg>
