<svg xmlns="http://www.w3.org/2000/svg" width="14.559" height="19.855" viewBox="0 0 14.559 19.855">
  <g id="fast-forward" transform="translate(0 19.855) rotate(-90)">
    <g id="Groupe_57" data-name="Groupe 57" transform="translate(0 0)">
      <g id="Groupe_56" data-name="Groupe 56">
        <path id="Tracé_40" data-name="Tracé 40" d="M.17,7.721l5.956,6.618a.662.662,0,0,0,.492.22h3.971a.661.661,0,0,0,.492-1.1L5.524,7.279l5.558-6.174A.662.662,0,0,0,10.589,0H6.618a.671.671,0,0,0-.492.218L.17,6.836A.662.662,0,0,0,.17,7.721Z" fill="#707070"/>
      </g>
    </g>
    <g id="Groupe_59" data-name="Groupe 59" transform="translate(8.604 0)">
      <g id="Groupe_58" data-name="Groupe 58">
        <path id="Tracé_41" data-name="Tracé 41" d="M.17,7.721l5.956,6.618a.662.662,0,0,0,.492.22h3.971a.661.661,0,0,0,.492-1.1L5.524,7.279l5.558-6.174A.662.662,0,0,0,10.589,0H6.618a.671.671,0,0,0-.492.218L.17,6.836A.662.662,0,0,0,.17,7.721Z" fill="#707070"/>
      </g>
    </g>
  </g>
</svg>
