<svg xmlns="http://www.w3.org/2000/svg" width="19.855" height="14.56" viewBox="0 0 19.855 14.56">
  <g id="fast-forward" transform="translate(0 -64.013)">
    <g id="Groupe_57" data-name="Groupe 57" transform="translate(8.604 64.013)">
      <g id="Groupe_56" data-name="Groupe 56" transform="translate(0 0)">
        <path id="Tracé_40" data-name="Tracé 40" d="M219.082,70.851l-5.956-6.618a.662.662,0,0,0-.492-.22h-3.971a.661.661,0,0,0-.492,1.1l5.558,6.176-5.558,6.175a.662.662,0,0,0,.492,1.105h3.971a.671.671,0,0,0,.492-.218l5.956-6.618A.662.662,0,0,0,219.082,70.851Z" transform="translate(-208 -64.013)" fill="#707070"/>
      </g>
    </g>
    <g id="Groupe_59" data-name="Groupe 59" transform="translate(0 64.013)">
      <g id="Groupe_58" data-name="Groupe 58" transform="translate(0 0)">
        <path id="Tracé_41" data-name="Tracé 41" d="M11.082,70.851,5.126,64.233a.662.662,0,0,0-.492-.22H.663a.661.661,0,0,0-.492,1.1l5.558,6.176L.17,77.468a.662.662,0,0,0,.492,1.105H4.633a.671.671,0,0,0,.492-.218l5.956-6.618A.662.662,0,0,0,11.082,70.851Z" transform="translate(0 -64.013)" fill="#707070"/>
      </g>
    </g>
  </g>
</svg>
