<svg id="fast-forward" xmlns="http://www.w3.org/2000/svg" width="19.855" height="14.559" viewBox="0 0 19.855 14.559">
  <g id="Groupe_57" data-name="Groupe 57" transform="translate(0 0)">
    <g id="Groupe_56" data-name="Groupe 56" transform="translate(0 0)">
      <path id="Tracé_40" data-name="Tracé 40" d="M208.17,70.85l5.956-6.618a.662.662,0,0,1,.492-.22h3.971a.661.661,0,0,1,.492,1.1l-5.558,6.175,5.558,6.174a.662.662,0,0,1-.492,1.105h-3.971a.671.671,0,0,1-.492-.218l-5.956-6.618A.662.662,0,0,1,208.17,70.85Z" transform="translate(-208 -64.013)" fill="#707070"/>
    </g>
  </g>
  <g id="Groupe_59" data-name="Groupe 59" transform="translate(8.604 0)">
    <g id="Groupe_58" data-name="Groupe 58" transform="translate(0 0)">
      <path id="Tracé_41" data-name="Tracé 41" d="M.17,70.85l5.956-6.618a.662.662,0,0,1,.492-.22h3.971a.661.661,0,0,1,.492,1.1L5.524,71.292l5.558,6.174a.662.662,0,0,1-.492,1.105H6.618a.671.671,0,0,1-.492-.218L.17,71.736A.662.662,0,0,1,.17,70.85Z" transform="translate(0 -64.013)" fill="#707070"/>
    </g>
  </g>
</svg>
