<svg id="Composant_24_1" data-name="Composant 24 – 1" xmlns="http://www.w3.org/2000/svg" width="27" height="27" viewBox="0 0 27 27">
  <g id="Tracé_87" data-name="Tracé 87" fill="#fff">
    <path d="M 25 26.5 L 2 26.5 C 1.172899961471558 26.5 0.5 25.82710075378418 0.5 25 L 0.5 2 C 0.5 1.172899961471558 1.172899961471558 0.5 2 0.5 L 25 0.5 C 25.82710075378418 0.5 26.5 1.172899961471558 26.5 2 L 26.5 25 C 26.5 25.82710075378418 25.82710075378418 26.5 25 26.5 Z" stroke="none"/>
    <path d="M 2 1 C 1.448600769042969 1 1 1.448600769042969 1 2 L 1 25 C 1 25.55139923095703 1.448600769042969 26 2 26 L 25 26 C 25.55139923095703 26 26 25.55139923095703 26 25 L 26 2 C 26 1.448600769042969 25.55139923095703 1 25 1 L 2 1 M 2 0 L 25 0 C 26.10457038879395 0 27 0.8954296112060547 27 2 L 27 25 C 27 26.10457038879395 26.10457038879395 27 25 27 L 2 27 C 0.8954296112060547 27 0 26.10457038879395 0 25 L 0 2 C 0 0.8954296112060547 0.8954296112060547 0 2 0 Z" stroke="none" fill="#adadad"/>
  </g>
</svg>
