<svg xmlns="http://www.w3.org/2000/svg" width="37.134" height="34.377" viewBox="0 0 37.134 34.377">
  <g id="user" transform="translate(-30.022 -4)">
    <g id="Groupe_30" data-name="Groupe 30" transform="translate(37.918 1)">
      <g id="Groupe_29" data-name="Groupe 29" transform="translate(1.023 3)">
        <path id="Tracé_33" data-name="Tracé 33" d="M129.859,0a8.859,8.859,0,1,0,8.859,8.859A8.869,8.869,0,0,0,129.859,0Z" transform="translate(-121)" fill="#0b77c2"/>
      </g>
    </g>
    <g id="Groupe_32" data-name="Groupe 32" transform="translate(31.022 23.238)">
      <g id="Groupe_31" data-name="Groupe 31" transform="translate(-1)">
        <path id="Tracé_34" data-name="Tracé 34" d="M63.429,304.471A16.481,16.481,0,0,0,52.045,300H47.094a16.482,16.482,0,0,0-11.384,4.471c-3.035,2.869-4.687,5.482-4.687,9.489,0,.636.01,1.109,0,1.135l37.132.044s0-.543,0-1.179C68.155,309.952,66.464,307.339,63.429,304.471Z" transform="translate(-31.022 -300)" fill="#0b77c2"/>
      </g>
    </g>
  </g>
</svg>
